<?xml version="1.0" standalone="no"?>
<!DOCTYPE svg PUBLIC "-//W3C//DTD SVG 20010904//EN"
 "http://www.w3.org/TR/2001/REC-SVG-20010904/DTD/svg10.dtd">
<svg version="1.0" xmlns="http://www.w3.org/2000/svg"
 width="548.000000pt" height="548.000000pt" viewBox="0 0 548.000000 548.000000"
 preserveAspectRatio="xMidYMid meet">
<metadata>
Created by potrace 1.14, written by Peter Selinger 2001-2017
</metadata>
<g transform="translate(0.000000,548.000000) scale(0.100000,-0.100000)"
fill="#000000" stroke="none">
<path d="M1375 4675 c-33 -7 -94 -25 -135 -40 -170 -62 -624 -255 -735 -313
-97 -51 -187 -138 -227 -220 l-33 -67 1 -170 c1 -138 9 -230 43 -495 55 -421
81 -525 163 -647 31 -45 105 -113 124 -113 7 0 14 -4 16 -9 4 -10 166 -83 223
-101 22 -6 92 -31 155 -56 63 -24 142 -51 175 -60 77 -21 293 -30 378 -15 73
13 801 266 881 307 71 36 165 104 190 137 16 21 21 45 22 102 1 43 -2 73 -7
69 -5 -3 -9 0 -9 5 0 6 -10 21 -21 32 -12 12 -15 19 -8 17 8 -3 22 -1 33 4 17
9 18 18 12 97 -4 47 -14 120 -23 161 -9 41 -17 84 -19 95 -1 11 -12 67 -23
125 -11 58 -27 160 -36 227 -27 214 -102 405 -201 512 -81 88 -412 324 -528
377 -118 54 -277 69 -411 39z m245 -10 c43 -22 55 -70 100 -385 22 -157 52
-355 65 -440 42 -256 36 -389 -17 -405 -25 -8 -63 17 -83 55 -22 43 -58 197
-115 499 -28 146 -60 295 -72 331 -42 131 -98 197 -190 226 -71 22 -75 41 -16
74 94 53 267 77 328 45z m255 -295 c-5 -16 -2 -20 18 -20 53 0 124 -107 148
-220 9 -43 13 -51 20 -35 7 18 8 18 8 -5 1 -27 -29 -60 -54 -60 -22 0 -84 59
-104 99 -38 74 -66 261 -39 261 5 0 6 -9 3 -20z m185 -234 c0 -26 -6 -18 -14
19 -5 22 -4 26 4 15 5 -8 10 -24 10 -34z m186 -11 c-5 -19 -2 -22 13 -18 27 7
96 -76 120 -145 11 -31 20 -48 21 -37 l1 20 9 -20 c15 -36 11 -97 -7 -111 -27
-20 -47 -17 -75 14 -66 69 -126 254 -102 316 9 24 26 7 20 -19z m-127 -217
c-11 -21 -11 -22 4 -10 31 26 96 -34 132 -124 13 -33 28 -57 32 -54 4 3 9 -6
10 -20 2 -23 2 -23 -6 -5 -9 19 -10 19 -10 -2 -1 -12 2 -29 6 -39 6 -16 7 -16
14 2 7 18 8 18 8 -2 1 -11 -10 -33 -23 -48 -23 -27 -24 -28 -55 -12 -82 43
-177 336 -109 336 5 0 3 -10 -3 -22z m-1049 -38 c11 -11 20 -27 20 -36 0 -14
-1 -14 -16 0 -19 20 -90 20 -124 1 -25 -15 -25 -15 8 -8 31 5 111 -20 112 -36
1 -3 7 -28 14 -56 12 -45 12 -54 -5 -87 -22 -42 -58 -70 -114 -87 -22 -7 -49
-17 -61 -22 -36 -18 -85 -7 -108 24 -24 33 -35 142 -16 176 15 29 22 21 30
-32 l6 -42 14 59 c8 32 23 73 35 90 46 68 161 100 205 56z m914 -174 c-4 -10
2 -12 19 -9 37 7 100 -60 128 -137 12 -34 25 -56 29 -50 5 7 10 3 13 -12 36
-133 -64 -176 -138 -58 -29 46 -69 174 -62 200 3 10 0 21 -5 22 -6 2 -8 17 -3
36 3 18 11 30 15 27 5 -3 7 -12 4 -19z m379 -193 c4 -3 2 -12 -3 -18 -8 -9 -3
-12 17 -12 35 0 85 -57 109 -123 10 -27 21 -47 25 -44 8 5 29 -58 29 -87 0
-22 -34 -59 -54 -59 -10 0 -14 -4 -11 -10 3 -5 1 -10 -5 -10 -46 0 -136 184
-128 264 3 29 1 43 -5 39 -6 -4 -8 0 -4 11 4 10 7 26 7 37 0 19 11 25 23 12z
m-501 -574 c73 -39 -109 -120 -242 -107 -60 6 -107 33 -90 53 15 18 106 56
159 65 54 10 145 4 173 -11z m-117 -203 c42 -31 -25 -76 -143 -95 -59 -9 -146
-2 -173 14 -31 20 8 54 87 79 63 19 204 21 229 2z m-109 -183 c47 -18 -35 -74
-136 -93 -87 -17 -196 6 -177 37 11 17 74 44 140 58 57 13 136 12 173 -2z"/>
<path d="M2402 3870 c0 -19 2 -27 5 -17 2 9 2 25 0 35 -3 9 -5 1 -5 -18z"/>
<path d="M821 3639 c-1 -8 6 -24 15 -35 15 -19 15 -19 6 1 -5 11 -12 27 -15
35 -5 13 -6 13 -6 -1z"/>
<path d="M2163 3440 c0 -25 2 -35 4 -22 2 12 2 32 0 45 -2 12 -4 2 -4 -23z"/>
<path d="M2511 3260 c0 -14 4 -32 9 -40 9 -13 10 -13 9 0 -1 8 -5 26 -9 40
l-8 25 -1 -25z"/>
<path d="M3869 3617 c-105 -30 -145 -67 -414 -387 -211 -252 -262 -306 -661
-710 -330 -333 -417 -430 -401 -447 3 -2 42 24 88 59 94 72 129 94 84 53 -41
-36 -78 -71 -92 -87 -6 -7 -37 -38 -68 -68 l-57 -55 6 -50 c16 -141 118 -263
501 -595 513 -444 578 -495 678 -530 104 -37 183 -25 367 52 346 145 563 309
755 568 168 227 469 694 531 823 30 64 36 88 38 154 6 197 -97 327 -649 818
-239 212 -402 342 -472 377 -72 35 -162 45 -234 25z m144 -31 c21 -8 55 -26
77 -41 42 -29 95 -99 86 -113 -3 -5 -32 -12 -64 -15 -131 -11 -204 -74 -308
-263 -38 -69 -113 -182 -166 -252 -54 -70 -116 -162 -138 -205 -40 -76 -41
-79 -41 -181 0 -124 -12 -150 -73 -150 -45 0 -252 102 -302 149 -43 40 -43 66
-3 141 43 84 112 172 370 479 304 363 359 418 445 449 49 18 69 19 117 2z
m218 -395 c34 -31 58 -65 74 -106 l25 -60 -2 63 c-2 89 11 97 67 39 42 -44 45
-51 45 -102 0 -125 -69 -200 -182 -197 -52 1 -82 16 -74 37 2 7 -11 17 -33 24
-127 38 -217 193 -167 289 49 94 154 100 247 13z m33 -501 c35 -13 104 -77
123 -114 9 -17 22 -49 29 -71 l13 -40 0 53 c1 64 20 77 58 40 96 -97 3 -288
-141 -288 -34 0 -63 21 -52 38 3 5 -12 12 -33 16 -85 13 -180 121 -189 215 -5
57 22 116 66 144 30 18 88 22 126 7z m146 -594 c44 -29 84 -86 109 -155 l16
-46 5 49 c3 27 10 51 16 53 6 2 24 -11 39 -29 24 -29 27 -38 22 -84 -8 -74
-39 -130 -94 -165 -63 -39 -123 -38 -123 2 0 12 -7 19 -20 19 -34 0 -94 36
-134 80 -64 71 -71 115 -30 190 17 30 37 53 56 61 16 6 26 14 24 17 -10 9 -67
-21 -86 -46 -27 -33 -34 -24 -12 16 41 76 130 92 212 38z m-1658 -300 c94 -34
212 -154 206 -211 -3 -29 -4 -30 -58 -31 -40 -1 -66 5 -95 21 -41 24 -155 136
-155 153 0 6 -3 17 -6 25 -7 19 30 57 54 57 9 -1 33 -7 54 -14z m1004 -332
c52 -24 171 -142 179 -177 11 -41 -10 -60 -57 -54 -21 3 -38 1 -38 -3 0 -13
-56 6 -92 31 -49 33 -118 101 -134 131 -44 84 33 123 142 72z"/>
<path d="M3137 2959 c-36 -30 -247 -264 -247 -274 0 -16 46 23 91 78 29 34 65
71 80 82 25 17 74 71 118 128 21 27 0 20 -42 -14z"/>
</g>
</svg>
